<svg width="320" height="320" viewBox="0 0 320 320" fill="none" xmlns="http://www.w3.org/2000/svg">
<g opacity="0.2">
<path fill-rule="evenodd" clip-rule="evenodd" d="M319.996 159.628C319.996 163.36 319.868 167.061 319.616 170.729V238.875V239.254V240.375V240.754V318.5V320H318.116H240.466H240.087H238.966H238.587H160.938H160.558H159.438H159.058H81.4083H81.0288H79.9083H79.5288H1.87953H0.379531V318.5V240.754V240.375V239.254V238.875V170.709C0.127932 167.048 6.10352e-05 163.353 6.10352e-05 159.628C6.10352e-05 155.904 0.127932 152.209 0.379531 148.547V81.5036V81.125L0.379043 79.625V1.87859V0.37859H1.87904H79.5283H81.0283L81.4084 0.379058H148.885C152.557 0.127732 156.263 0 159.998 0C163.734 0 167.44 0.127732 171.111 0.379058H238.587H238.967H240.087H240.467H318.116H319.616V1.87906V79.6255V81.1255L319.616 81.5036V148.528C319.868 152.196 319.996 155.897 319.996 159.628ZM318.116 81.5036V135.076C315.145 115.875 308.744 97.8031 299.558 81.5036H318.116ZM318.116 148.581C316.436 124.305 309.265 101.537 297.833 81.5036H240.466V159.25H318.116V148.581ZM318.116 79.6255H298.482C284.526 55.6314 264.485 35.598 240.467 21.6274V1.87906H318.116V79.6255ZM296.744 79.6255C283.087 56.441 263.675 37.0366 240.467 23.3656V79.6255H296.744ZM238.587 1.87906V20.551C222.18 11.3031 203.974 4.86144 184.624 1.87906H238.587ZM238.587 22.2756C218.435 10.7747 195.51 3.56062 171.059 1.87906H160.938V79.6255H238.587V22.2756ZM81.4084 1.87906H135.373C116.022 4.86152 97.8153 11.3035 81.4084 20.5517V1.87906ZM148.937 1.87906C124.486 3.56066 101.56 10.775 81.4084 22.2764V79.6255H159.058V1.87906H148.937ZM79.5283 1.87859V21.6284C55.5107 35.5988 35.4703 55.6317 21.5147 79.625H1.87904V1.87859H79.5283ZM79.5283 23.3666C56.3208 37.0375 36.9099 56.4413 23.2532 79.625H79.5283V23.3666ZM1.87953 81.5036H20.439C11.2512 97.8055 4.84994 115.88 1.87953 135.085V81.5036ZM1.87953 161.129V170.657C3.58769 195.394 10.9986 218.566 22.8103 238.875H79.5288V161.129H1.87953ZM1.87953 238.875V184.172C4.91825 203.818 11.5475 222.282 21.0773 238.875H1.87953ZM1.87953 240.754H22.1734C36.0977 264.25 55.8863 283.876 79.5288 297.629V318.5H1.87953V240.754ZM81.4083 318.5V298.705C100.322 309.366 121.626 316.298 144.319 318.5H81.4083ZM81.4083 296.98C104.318 310.056 130.812 317.59 159.058 317.754V240.754H81.4083V296.98ZM238.587 318.5H175.678C198.37 316.298 219.674 309.366 238.587 298.706V318.5ZM160.938 317.754C189.183 317.591 215.678 310.056 238.587 296.981V240.754H160.938V317.754ZM240.466 318.5V297.629C264.11 283.877 283.899 264.25 297.823 240.754H318.116V318.5H240.466ZM240.466 295.891C263.299 282.441 282.457 263.442 296.076 240.754H240.466V295.891ZM240.466 238.875H297.186C308.995 218.572 316.405 195.406 318.116 170.676V161.129H240.466V238.875ZM318.116 184.18C315.076 203.824 308.448 222.284 298.919 238.875H318.116V184.18ZM23.9203 240.754C37.5388 263.442 56.6964 282.441 79.5288 295.89V240.754H23.9203ZM22.1639 81.5036C10.7283 101.542 3.55632 124.317 1.87953 148.6V159.25H79.5288V81.5036H22.1639ZM81.4083 81.5036H159.058H126H120.233H81.4083ZM81.4083 161.129V238.875H159.058H159.998H160.938H238.587C238.587 208.015 238.587 185.637 238.587 161.129C238.587 160.753 238.587 160.377 238.587 160C238.587 159.75 238.587 159.5 238.587 159.25C238.587 145.139 238.587 81.5036 238.587 81.5036H160.938H159.998H159.058H81.4083V159.25V160V161.129ZM238.587 161.129V238.875H212H210H238.587C238.587 226.233 238.587 191.463 238.587 161.129C238.587 160.752 238.587 160.375 238.587 160C238.587 159.75 238.587 159.5 238.587 159.25C238.587 138.303 238.587 81.5036 238.587 81.5036L238.587 159.25L238.587 160L238.587 161.129Z" fill="white"/>
<path d="M240.466 295.891C263.299 282.441 282.457 263.442 296.076 240.754H240.466V295.891Z" fill="white"/>
<path d="M79.5283 23.3666C56.3208 37.0375 36.9099 56.4413 23.2532 79.625H79.5283V23.3666Z" fill="white"/>
<path d="M160.938 159.25H238.587L160.938 81.5036V159.25Z" fill="white"/>
<path d="M159.058 161.129H81.4083L159.058 238.875V161.129Z" fill="white"/>
<path fill-rule="evenodd" clip-rule="evenodd" d="M159.998 238.875H159.058V161.129H160L159.998 238.875Z" fill="white"/>
<path fill-rule="evenodd" clip-rule="evenodd" d="M160.938 160H238.587L238.587 159.25H160.938V160Z" fill="white"/>
<path fill-rule="evenodd" clip-rule="evenodd" d="M159.058 160V161.129H160L160 160H160.938V159.25H160L160 160H159.058Z" fill="white"/>
<path fill-rule="evenodd" clip-rule="evenodd" d="M159.998 81.5036H160.938V159.25H160L159.998 81.5036Z" fill="white"/>
<path fill-rule="evenodd" clip-rule="evenodd" d="M81.4083 161.129V160H159.058V161.129H81.4083Z" fill="white"/>
</g>
</svg>
