<svg width="18" height="18" viewBox="0 0 18 18" fill="none" xmlns="http://www.w3.org/2000/svg">
<path fill-rule="evenodd" clip-rule="evenodd" d="M10.3954 10.8142C8.44278 12.7669 5.27695 12.7669 3.32433 10.8142C1.37171 8.86163 1.37171 5.6958 3.32433 3.74318C5.27695 1.79056 8.44278 1.79056 10.3954 3.74318C12.348 5.6958 12.348 8.86163 10.3954 10.8142ZM10.9959 12.7001C8.32289 14.7447 4.48345 14.5447 2.03868 12.0999C-0.623984 9.43723 -0.623984 5.1202 2.03868 2.45753C4.70135 -0.205131 9.01838 -0.205131 11.681 2.45753C14.1257 4.90219 14.3259 8.7414 12.2815 11.4144L17.1452 16.2781L15.8596 17.5637L10.9959 12.7001Z" fill="white"/>
</svg>
